<svg width="45" height="45" viewBox="0 0 45 45" fill="none" xmlns="http://www.w3.org/2000/svg">
<circle cx="22.5" cy="22.5" r="22.5" fill=""></circle>
<path d="M21.9688 16.0625C21.6562 16.375 21.6875 16.8438 21.9688 17.1562L25.75 20.75H16.75C16.3438 20.75 16 21.0625 16 21.5V22.5C16 22.9062 16.3438 23.25 16.75 23.25H25.75L21.9688 26.8125C21.6875 27.125 21.6562 27.5938 21.9688 27.9062L22.6562 28.5938C22.9375 28.875 23.4375 28.875 23.7188 28.5938L29.7812 22.5C30.0938 22.2188 30.0938 21.75 29.7812 21.4688L23.7188 15.375C23.4375 15.0938 22.9688 15.0938 22.6562 15.375L21.9688 16.0625Z" fill="white" data-index="0"></path>
</svg>