<svg width="38" height="34" viewBox="0 0 38 34" fill="none" xmlns="http://www.w3.org/2000/svg">
<path d="M3.5625 33.375L13.0625 33.375C15.0664 33.375 16.625 31.7422 16.625 29.8125V20.3125C16.625 18.3086 15.0664 16.75 13.0625 16.75H7.125V12C7.125 9.32812 9.27734 7.25 11.875 7.25H12.4688C13.5078 7.25 14.25 6.43359 14.25 5.46875V1.90625C14.25 0.867187 13.5078 0.125 12.4688 0.125H11.875C5.34375 0.125 0 5.39453 0 12V29.8125C0 31.7422 1.63281 33.375 3.5625 33.375ZM24.9375 33.375H34.4375C36.4414 33.375 38 31.7422 38 29.8125V20.3125C38 18.3086 36.4414 16.75 34.4375 16.75H28.5V12C28.5 9.32812 30.6523 7.25 33.25 7.25H33.8438C34.8828 7.25 35.625 6.43359 35.625 5.46875V1.90625C35.625 0.867188 34.8828 0.125 33.8438 0.125H33.25C26.7188 0.125 21.375 5.39453 21.375 12L21.375 29.8125C21.375 31.7422 23.0078 33.375 24.9375 33.375Z" fill="#FE461C"/>
</svg>
