<svg width="98" height="98" viewBox="0 0 98 98" fill="none" xmlns="http://www.w3.org/2000/svg">
<g filter="url(#filter0_d_2_4338)">
<rect x="24" y="24" width="50" height="50" rx="4" fill="#24263B"/>
</g>
<path d="M49 44.207C46.75 44.207 44.957 46.0352 44.957 48.25C44.957 50.5 46.75 52.293 49 52.293C51.2148 52.293 53.043 50.5 53.043 48.25C53.043 46.0352 51.2148 44.207 49 44.207ZM49 50.8867C47.5586 50.8867 46.3633 49.7266 46.3633 48.25C46.3633 46.8086 47.5234 45.6484 49 45.6484C50.4414 45.6484 51.6016 46.8086 51.6016 48.25C51.6016 49.7266 50.4414 50.8867 49 50.8867ZM54.1328 44.0664C54.1328 43.5391 53.7109 43.1172 53.1836 43.1172C52.6562 43.1172 52.2344 43.5391 52.2344 44.0664C52.2344 44.5938 52.6562 45.0156 53.1836 45.0156C53.7109 45.0156 54.1328 44.5938 54.1328 44.0664ZM56.8047 45.0156C56.7344 43.75 56.4531 42.625 55.5391 41.7109C54.625 40.7969 53.5 40.5156 52.2344 40.4453C50.9336 40.375 47.0312 40.375 45.7305 40.4453C44.4648 40.5156 43.375 40.7969 42.4258 41.7109C41.5117 42.625 41.2305 43.75 41.1602 45.0156C41.0898 46.3164 41.0898 50.2188 41.1602 51.5195C41.2305 52.7852 41.5117 53.875 42.4258 54.8242C43.375 55.7383 44.4648 56.0195 45.7305 56.0898C47.0312 56.1602 50.9336 56.1602 52.2344 56.0898C53.5 56.0195 54.625 55.7383 55.5391 54.8242C56.4531 53.875 56.7344 52.7852 56.8047 51.5195C56.875 50.2188 56.875 46.3164 56.8047 45.0156ZM55.1172 52.8906C54.8711 53.5938 54.3086 54.1211 53.6406 54.4023C52.5859 54.8242 50.125 54.7188 49 54.7188C47.8398 54.7188 45.3789 54.8242 44.3594 54.4023C43.6562 54.1211 43.1289 53.5938 42.8477 52.8906C42.4258 51.8711 42.5312 49.4102 42.5312 48.25C42.5312 47.125 42.4258 44.6641 42.8477 43.6094C43.1289 42.9414 43.6562 42.4141 44.3594 42.1328C45.3789 41.7109 47.8398 41.8164 49 41.8164C50.125 41.8164 52.5859 41.7109 53.6406 42.1328C54.3086 42.3789 54.8359 42.9414 55.1172 43.6094C55.5391 44.6641 55.4336 47.125 55.4336 48.25C55.4336 49.4102 55.5391 51.8711 55.1172 52.8906Z" fill="white"/>
<defs>
<filter id="filter0_d_2_4338" x="0" y="0" width="98" height="98" filterUnits="userSpaceOnUse" color-interpolation-filters="sRGB">
<feFlood flood-opacity="0" result="BackgroundImageFix"/>
<feColorMatrix in="SourceAlpha" type="matrix" values="0 0 0 0 0 0 0 0 0 0 0 0 0 0 0 0 0 0 127 0" result="hardAlpha"/>
<feOffset/>
<feGaussianBlur stdDeviation="12"/>
<feColorMatrix type="matrix" values="0 0 0 0 0.0590972 0 0 0 0 0.0622917 0 0 0 0 0.0958333 0 0 0 0.42 0"/>
<feBlend mode="normal" in2="BackgroundImageFix" result="effect1_dropShadow_2_4338"/>
<feBlend mode="normal" in="SourceGraphic" in2="effect1_dropShadow_2_4338" result="shape"/>
</filter>
</defs>
</svg>
