<svg width="98" height="98" viewBox="0 0 98 98" fill="none" xmlns="http://www.w3.org/2000/svg">
<g filter="url(#filter0_d_2_4341)">
<rect x="24" y="24" width="50" height="50" rx="4" fill="#24263B"/>
</g>
<path d="M47.0312 48.6172C48.1211 48.0547 48.7188 47.2461 48.7188 46.0156C48.7188 43.5195 46.8555 42.9219 44.7461 42.9219H38.875V55.3672H44.8867C47.1719 55.3672 49.2812 54.2773 49.2812 51.7461C49.2812 50.1992 48.543 49.0391 47.0312 48.6172ZM41.582 45.0312H44.1836C45.168 45.0312 46.0469 45.3125 46.0469 46.4727C46.0469 47.5273 45.3438 47.9492 44.3594 47.9492H41.582V45.0312ZM44.5352 53.2578H41.582V49.8125H44.5703C45.8008 49.8125 46.5391 50.3398 46.5391 51.6055C46.5391 52.8711 45.625 53.2578 44.5352 53.2578ZM57.1211 44.7852V43.5547H52.0938V44.7852H57.1211ZM59.125 51.0078C59.125 48.3359 57.543 46.0859 54.7305 46.0859C51.9531 46.0859 50.0898 48.1602 50.0898 50.8672C50.0898 53.6797 51.8828 55.6133 54.7305 55.6133C56.875 55.6133 58.2812 54.6289 58.9492 52.5898H56.7695C56.5234 53.3633 55.5391 53.75 54.8008 53.75C53.3594 53.75 52.5859 52.9062 52.5859 51.4648H59.0898C59.0898 51.3242 59.125 51.1484 59.125 51.0078ZM52.5859 49.8828C52.6562 48.7227 53.4648 47.9844 54.625 47.9844C55.8906 47.9844 56.5234 48.6875 56.6289 49.8828H52.5859Z" fill="white"/>
<defs>
<filter id="filter0_d_2_4341" x="0" y="0" width="98" height="98" filterUnits="userSpaceOnUse" color-interpolation-filters="sRGB">
<feFlood flood-opacity="0" result="BackgroundImageFix"/>
<feColorMatrix in="SourceAlpha" type="matrix" values="0 0 0 0 0 0 0 0 0 0 0 0 0 0 0 0 0 0 127 0" result="hardAlpha"/>
<feOffset/>
<feGaussianBlur stdDeviation="12"/>
<feColorMatrix type="matrix" values="0 0 0 0 0.0590972 0 0 0 0 0.0622917 0 0 0 0 0.0958333 0 0 0 0.42 0"/>
<feBlend mode="normal" in2="BackgroundImageFix" result="effect1_dropShadow_2_4341"/>
<feBlend mode="normal" in="SourceGraphic" in2="effect1_dropShadow_2_4341" result="shape"/>
</filter>
</defs>
</svg>
