<svg width="98" height="98" viewBox="0 0 98 98" fill="none" xmlns="http://www.w3.org/2000/svg">
<g filter="url(#filter0_d_2_4335)">
<rect x="24" y="24" width="50" height="50" rx="4" fill="#24263B"/>
</g>
<path d="M44.6406 56V45.4883H41.3711V56H44.6406ZM42.9883 44.082C44.043 44.082 44.8867 43.2031 44.8867 42.1484C44.8867 41.1289 44.043 40.2852 42.9883 40.2852C41.9688 40.2852 41.125 41.1289 41.125 42.1484C41.125 43.2031 41.9688 44.082 42.9883 44.082ZM56.8398 56H56.875V50.2344C56.875 47.4219 56.2422 45.2422 52.9375 45.2422C51.3555 45.2422 50.3008 46.1211 49.8438 46.9297H49.8086V45.4883H46.6797V56H49.9492V50.7969C49.9492 49.4258 50.1953 48.125 51.8828 48.125C53.5703 48.125 53.6055 49.6719 53.6055 50.9023V56H56.8398Z" fill="white"/>
<defs>
<filter id="filter0_d_2_4335" x="0" y="0" width="98" height="98" filterUnits="userSpaceOnUse" color-interpolation-filters="sRGB">
<feFlood flood-opacity="0" result="BackgroundImageFix"/>
<feColorMatrix in="SourceAlpha" type="matrix" values="0 0 0 0 0 0 0 0 0 0 0 0 0 0 0 0 0 0 127 0" result="hardAlpha"/>
<feOffset/>
<feGaussianBlur stdDeviation="12"/>
<feColorMatrix type="matrix" values="0 0 0 0 0.0590972 0 0 0 0 0.0622917 0 0 0 0 0.0958333 0 0 0 0.42 0"/>
<feBlend mode="normal" in2="BackgroundImageFix" result="effect1_dropShadow_2_4335"/>
<feBlend mode="normal" in="SourceGraphic" in2="effect1_dropShadow_2_4335" result="shape"/>
</filter>
</defs>
</svg>
